<svg xmlns="http://www.w3.org/2000/svg" xmlns:xlink="http://www.w3.org/1999/xlink" contentStyleType="text/css" data-diagram-type="ACTIVITY" height="528px" preserveAspectRatio="none" style="width:768px;height:528px;background:#FFFFFF;" version="1.1" viewBox="0 0 768 528" width="768px" zoomAndPan="magnify"><defs/><g><ellipse cx="444.7444" cy="20" fill="#222222" rx="10" ry="10" style="stroke:#222222;stroke-width:1;"/><rect fill="#F1F1F1" height="33.9688" rx="12.5" ry="12.5" style="stroke:#181818;stroke-width:0.5;" width="178.1563" x="355.6663" y="50"/><text fill="#000000" font-family="sans-serif" font-size="12" lengthAdjust="spacing" textLength="158.1563" x="365.6663" y="71.1387">User Opens Forecast Page</text><rect fill="#F1F1F1" height="33.9688" rx="12.5" ry="12.5" style="stroke:#181818;stroke-width:0.5;" width="198.0781" x="345.7053" y="103.9688"/><text fill="#000000" font-family="sans-serif" font-size="12" lengthAdjust="spacing" textLength="178.0781" x="355.7053" y="125.1074">User Selects Date to Forecast</text><rect fill="#F1F1F1" height="33.9688" rx="12.5" ry="12.5" style="stroke:#181818;stroke-width:0.5;" width="306.0898" x="291.6995" y="157.9375"/><text fill="#000000" font-family="sans-serif" font-size="12" lengthAdjust="spacing" textLength="286.0898" x="301.6995" y="179.0762">User Selects Day Type (Normal, Holiday, Exam)</text><rect fill="#F1F1F1" height="33.9688" rx="12.5" ry="12.5" style="stroke:#181818;stroke-width:0.5;" width="209.6035" x="339.9426" y="211.9063"/><text fill="#000000" font-family="sans-serif" font-size="12" lengthAdjust="spacing" textLength="189.6035" x="349.9426" y="233.0449">Request Weather Data for Date</text><polygon fill="#F1F1F1" points="376.4993,265.875,512.9895,265.875,524.9895,277.875,512.9895,289.875,376.4993,289.875,364.4993,277.875,376.4993,265.875" style="stroke:#181818;stroke-width:0.5;"/><text fill="#000000" font-family="sans-serif" font-size="11" lengthAdjust="spacing" textLength="136.4902" x="376.4993" y="281.6831">Weather Data Available?</text><text fill="#000000" font-family="sans-serif" font-size="11" lengthAdjust="spacing" textLength="19.0083" x="345.491" y="275.2808">yes</text><rect fill="#F1F1F1" height="33.9688" rx="12.5" ry="12.5" style="stroke:#181818;stroke-width:0.5;" width="250.2676" x="132.6528" y="299.875"/><text fill="#000000" font-family="sans-serif" font-size="12" lengthAdjust="spacing" textLength="230.2676" x="142.6528" y="321.0137">Optionally Fetch Food Portions History</text><rect fill="#F1F1F1" height="33.9688" rx="12.5" ry="12.5" style="stroke:#181818;stroke-width:0.5;" width="272.9727" x="121.3003" y="353.8438"/><text fill="#000000" font-family="sans-serif" font-size="12" lengthAdjust="spacing" textLength="252.9727" x="131.3003" y="374.9824">Run Prediction Algorithm (Python Service)</text><polygon fill="#F1F1F1" points="203.4392,407.8125,312.134,407.8125,324.134,419.8125,312.134,431.8125,203.4392,431.8125,191.4392,419.8125,203.4392,407.8125" style="stroke:#181818;stroke-width:0.5;"/><text fill="#000000" font-family="sans-serif" font-size="11" lengthAdjust="spacing" textLength="108.6948" x="203.4392" y="423.6206">Prediction Success?</text><text fill="#000000" font-family="sans-serif" font-size="11" lengthAdjust="spacing" textLength="19.0083" x="172.4309" y="417.2183">yes</text><rect fill="#F1F1F1" height="33.9688" rx="12.5" ry="12.5" style="stroke:#181818;stroke-width:0.5;" width="251.1816" x="11" y="441.8125"/><text fill="#000000" font-family="sans-serif" font-size="12" lengthAdjust="spacing" textLength="231.1816" x="21" y="462.9512">Display Predicted Portions and Metrics</text><ellipse cx="136.5908" cy="506.7813" fill="none" rx="11" ry="11" style="stroke:#222222;stroke-width:1;"/><ellipse cx="136.5908" cy="506.7813" fill="#222222" rx="6" ry="6" style="stroke:#222222;stroke-width:1;"/><rect fill="#F1F1F1" height="33.9688" rx="12.5" ry="12.5" style="stroke:#181818;stroke-width:0.5;" width="193.6016" x="282.1816" y="441.8125"/><text fill="#000000" font-family="sans-serif" font-size="12" lengthAdjust="spacing" textLength="173.6016" x="292.1816" y="462.9512">Show Error: Prediction Failed</text><ellipse cx="378.9824" cy="506.7813" fill="none" rx="11" ry="11" style="stroke:#222222;stroke-width:1;"/><ellipse cx="378.9824" cy="506.7813" fill="#222222" rx="6" ry="6" style="stroke:#222222;stroke-width:1;"/><rect fill="#F1F1F1" height="33.9688" rx="12.5" ry="12.5" style="stroke:#181818;stroke-width:0.5;" width="251.8379" x="505.7832" y="299.875"/><text fill="#000000" font-family="sans-serif" font-size="12" lengthAdjust="spacing" textLength="231.8379" x="515.7832" y="321.0137">Show Error: Weather Data Unavailable</text><ellipse cx="631.7021" cy="364.8438" fill="none" rx="11" ry="11" style="stroke:#222222;stroke-width:1;"/><ellipse cx="631.7021" cy="364.8438" fill="#222222" rx="6" ry="6" style="stroke:#222222;stroke-width:1;"/><line style="stroke:#181818;stroke-width:1;" x1="444.7444" x2="444.7444" y1="30" y2="50"/><polygon fill="#181818" points="440.7444,40,444.7444,50,448.7444,40,444.7444,44" style="stroke:#181818;stroke-width:1;"/><line style="stroke:#181818;stroke-width:1;" x1="444.7444" x2="444.7444" y1="83.9688" y2="103.9688"/><polygon fill="#181818" points="440.7444,93.9688,444.7444,103.9688,448.7444,93.9688,444.7444,97.9688" style="stroke:#181818;stroke-width:1;"/><line style="stroke:#181818;stroke-width:1;" x1="444.7444" x2="444.7444" y1="137.9375" y2="157.9375"/><polygon fill="#181818" points="440.7444,147.9375,444.7444,157.9375,448.7444,147.9375,444.7444,151.9375" style="stroke:#181818;stroke-width:1;"/><line style="stroke:#181818;stroke-width:1;" x1="444.7444" x2="444.7444" y1="191.9063" y2="211.9063"/><polygon fill="#181818" points="440.7444,201.9063,444.7444,211.9063,448.7444,201.9063,444.7444,205.9063" style="stroke:#181818;stroke-width:1;"/><line style="stroke:#181818;stroke-width:1;" x1="257.7866" x2="257.7866" y1="333.8438" y2="353.8438"/><polygon fill="#181818" points="253.7866,343.8438,257.7866,353.8438,261.7866,343.8438,257.7866,347.8438" style="stroke:#181818;stroke-width:1;"/><line style="stroke:#181818;stroke-width:1;" x1="136.5908" x2="136.5908" y1="475.7813" y2="495.7813"/><polygon fill="#181818" points="132.5908,485.7813,136.5908,495.7813,140.5908,485.7813,136.5908,489.7813" style="stroke:#181818;stroke-width:1;"/><line style="stroke:#181818;stroke-width:1;" x1="378.9824" x2="378.9824" y1="475.7813" y2="495.7813"/><polygon fill="#181818" points="374.9824,485.7813,378.9824,495.7813,382.9824,485.7813,378.9824,489.7813" style="stroke:#181818;stroke-width:1;"/><line style="stroke:#181818;stroke-width:1;" x1="191.4392" x2="136.5908" y1="419.8125" y2="419.8125"/><line style="stroke:#181818;stroke-width:1;" x1="136.5908" x2="136.5908" y1="419.8125" y2="441.8125"/><polygon fill="#181818" points="132.5908,431.8125,136.5908,441.8125,140.5908,431.8125,136.5908,435.8125" style="stroke:#181818;stroke-width:1;"/><line style="stroke:#181818;stroke-width:1;" x1="324.134" x2="378.9824" y1="419.8125" y2="419.8125"/><line style="stroke:#181818;stroke-width:1;" x1="378.9824" x2="378.9824" y1="419.8125" y2="441.8125"/><polygon fill="#181818" points="374.9824,431.8125,378.9824,441.8125,382.9824,431.8125,378.9824,435.8125" style="stroke:#181818;stroke-width:1;"/><line style="stroke:#181818;stroke-width:1;" x1="257.7866" x2="257.7866" y1="387.8125" y2="407.8125"/><polygon fill="#181818" points="253.7866,397.8125,257.7866,407.8125,261.7866,397.8125,257.7866,401.8125" style="stroke:#181818;stroke-width:1;"/><line style="stroke:#181818;stroke-width:1;" x1="631.7021" x2="631.7021" y1="333.8438" y2="353.8438"/><polygon fill="#181818" points="627.7021,343.8438,631.7021,353.8438,635.7021,343.8438,631.7021,347.8438" style="stroke:#181818;stroke-width:1;"/><line style="stroke:#181818;stroke-width:1;" x1="364.4993" x2="257.7866" y1="277.875" y2="277.875"/><line style="stroke:#181818;stroke-width:1;" x1="257.7866" x2="257.7866" y1="277.875" y2="299.875"/><polygon fill="#181818" points="253.7866,289.875,257.7866,299.875,261.7866,289.875,257.7866,293.875" style="stroke:#181818;stroke-width:1;"/><line style="stroke:#181818;stroke-width:1;" x1="524.9895" x2="631.7021" y1="277.875" y2="277.875"/><line style="stroke:#181818;stroke-width:1;" x1="631.7021" x2="631.7021" y1="277.875" y2="299.875"/><polygon fill="#181818" points="627.7021,289.875,631.7021,299.875,635.7021,289.875,631.7021,293.875" style="stroke:#181818;stroke-width:1;"/><line style="stroke:#181818;stroke-width:1;" x1="444.7444" x2="444.7444" y1="245.875" y2="265.875"/><polygon fill="#181818" points="440.7444,255.875,444.7444,265.875,448.7444,255.875,444.7444,259.875" style="stroke:#181818;stroke-width:1;"/><!--SRC=[PP11Ri9034NtEOMNGU84i418WDYqHAIeQtTYo4YJcTGsj7FxEYcjIBkp_F-plosAh4MnE0an77gA0hl4v50KAhpGyYxL5CYfm0QLGDElwR-UuINt1ELpuWx37FOf-0Rp7BQVsCtCVwJtAzduLq9j3RMH2ESq5hQly6Se9zhwXZxWMw3L3AmReSmaim9WSUZLfuWXPDYHkjPYfGQgn4DROEz54-VbO3rU8rHCZNU31kjmIUorxQ2iihRMgObltf4bDFkGuS5TNvqZaR_xRUp6In_ivhkP7hPZRE29bBsJvMYsCBqL58I-uRfD7x1bJhnupBQpSwcPCh7nvwAuenDmygfJn9zd3Vn8Z-mN]--></g></svg>