<svg xmlns="http://www.w3.org/2000/svg" xmlns:xlink="http://www.w3.org/1999/xlink" contentStyleType="text/css" data-diagram-type="ACTIVITY" height="489px" preserveAspectRatio="none" style="width:640px;height:489px;background:#FFFFFF;" version="1.1" viewBox="0 0 640 489" width="640px" zoomAndPan="magnify"><defs/><g><ellipse cx="247.2581" cy="20" fill="#222222" rx="10" ry="10" style="stroke:#222222;stroke-width:1;"/><rect fill="#F1F1F1" height="33.9688" rx="12.5" ry="12.5" style="stroke:#181818;stroke-width:0.5;" width="324.4121" x="85.052" y="50"/><text fill="#000000" font-family="sans-serif" font-size="12" lengthAdjust="spacing" textLength="304.4121" x="95.052" y="71.1387">Client Sends API Request (data, JWT, CSRF tokens)</text><rect fill="#F1F1F1" height="33.9688" rx="12.5" ry="12.5" style="stroke:#181818;stroke-width:0.5;" width="184.4023" x="155.0569" y="103.9688"/><text fill="#000000" font-family="sans-serif" font-size="12" lengthAdjust="spacing" textLength="164.4023" x="165.0569" y="125.1074">Server Sanitizes Input Data</text><polygon fill="#F1F1F1" points="193.9714,157.9375,300.5447,157.9375,312.5447,169.9375,300.5447,181.9375,193.9714,181.9375,181.9714,169.9375,193.9714,157.9375" style="stroke:#181818;stroke-width:0.5;"/><text fill="#000000" font-family="sans-serif" font-size="11" lengthAdjust="spacing" textLength="106.5732" x="193.9714" y="173.7456">Validate JWT Token</text><text fill="#000000" font-family="sans-serif" font-size="11" lengthAdjust="spacing" textLength="36.561" x="145.4104" y="167.3433">Invalid</text><text fill="#000000" font-family="sans-serif" font-size="11" lengthAdjust="spacing" textLength="27.3604" x="312.5447" y="167.3433">Valid</text><rect fill="#F1F1F1" height="33.9688" rx="12.5" ry="12.5" style="stroke:#181818;stroke-width:0.5;" width="171.6699" x="11" y="191.9375"/><text fill="#000000" font-family="sans-serif" font-size="12" lengthAdjust="spacing" textLength="151.6699" x="21" y="213.0762">Return 401 Unauthorized</text><ellipse cx="96.835" cy="271.9063" fill="none" rx="11" ry="11" style="stroke:#222222;stroke-width:1;"/><ellipse cx="96.835" cy="271.9063" fill="#222222" rx="6" ry="6" style="stroke:#222222;stroke-width:1;"/><polygon fill="#F1F1F1" points="346.1697,191.9375,449.1926,191.9375,461.1926,203.9375,449.1926,215.9375,346.1697,215.9375,334.1697,203.9375,346.1697,191.9375" style="stroke:#181818;stroke-width:0.5;"/><text fill="#000000" font-family="sans-serif" font-size="11" lengthAdjust="spacing" textLength="103.0229" x="346.1697" y="207.7456">Check CSRF Token</text><text fill="#000000" font-family="sans-serif" font-size="11" lengthAdjust="spacing" textLength="36.561" x="297.6086" y="201.3433">Invalid</text><text fill="#000000" font-family="sans-serif" font-size="11" lengthAdjust="spacing" textLength="27.3604" x="461.1926" y="201.3433">Valid</text><rect fill="#F1F1F1" height="33.9688" rx="12.5" ry="12.5" style="stroke:#181818;stroke-width:0.5;" width="151.4551" x="212.6699" y="225.9375"/><text fill="#000000" font-family="sans-serif" font-size="12" lengthAdjust="spacing" textLength="131.4551" x="222.6699" y="247.0762">Return 403 Forbidden</text><ellipse cx="288.3975" cy="305.9063" fill="none" rx="11" ry="11" style="stroke:#222222;stroke-width:1;"/><ellipse cx="288.3975" cy="305.9063" fill="#222222" rx="6" ry="6" style="stroke:#222222;stroke-width:1;"/><rect fill="#F1F1F1" height="33.9688" rx="12.5" ry="12.5" style="stroke:#181818;stroke-width:0.5;" width="146.1465" x="433.8916" y="225.9375"/><text fill="#000000" font-family="sans-serif" font-size="12" lengthAdjust="spacing" textLength="126.1465" x="443.8916" y="247.0762">Apply XSS Protection</text><rect fill="#F1F1F1" height="33.9688" rx="12.5" ry="12.5" style="stroke:#181818;stroke-width:0.5;" width="245.6797" x="384.125" y="294.9063"/><text fill="#000000" font-family="sans-serif" font-size="12" lengthAdjust="spacing" textLength="225.6797" x="394.125" y="316.0449">Process Request (Business Logic, DB)</text><rect fill="#F1F1F1" height="33.9688" rx="12.5" ry="12.5" style="stroke:#181818;stroke-width:0.5;" width="161.293" x="426.3184" y="348.875"/><text fill="#000000" font-family="sans-serif" font-size="12" lengthAdjust="spacing" textLength="141.293" x="436.3184" y="370.0137">Prepare Response Data</text><rect fill="#F1F1F1" height="33.9688" rx="12.5" ry="12.5" style="stroke:#181818;stroke-width:0.5;" width="176.9727" x="418.4785" y="402.8438"/><text fill="#000000" font-family="sans-serif" font-size="12" lengthAdjust="spacing" textLength="156.9727" x="428.4785" y="423.9824">Return Response to Client</text><ellipse cx="506.9648" cy="467.8125" fill="none" rx="11" ry="11" style="stroke:#222222;stroke-width:1;"/><ellipse cx="506.9648" cy="467.8125" fill="#222222" rx="6" ry="6" style="stroke:#222222;stroke-width:1;"/><line style="stroke:#181818;stroke-width:1;" x1="247.2581" x2="247.2581" y1="30" y2="50"/><polygon fill="#181818" points="243.2581,40,247.2581,50,251.2581,40,247.2581,44" style="stroke:#181818;stroke-width:1;"/><line style="stroke:#181818;stroke-width:1;" x1="247.2581" x2="247.2581" y1="83.9688" y2="103.9688"/><polygon fill="#181818" points="243.2581,93.9688,247.2581,103.9688,251.2581,93.9688,247.2581,97.9688" style="stroke:#181818;stroke-width:1;"/><line style="stroke:#181818;stroke-width:1;" x1="96.835" x2="96.835" y1="225.9063" y2="260.9063"/><polygon fill="#181818" points="92.835,250.9063,96.835,260.9063,100.835,250.9063,96.835,254.9063" style="stroke:#181818;stroke-width:1;"/><line style="stroke:#181818;stroke-width:1;" x1="288.3975" x2="288.3975" y1="259.9063" y2="294.9063"/><polygon fill="#181818" points="284.3975,284.9063,288.3975,294.9063,292.3975,284.9063,288.3975,288.9063" style="stroke:#181818;stroke-width:1;"/><line style="stroke:#181818;stroke-width:1;" x1="506.9648" x2="506.9648" y1="259.9063" y2="294.9063"/><polygon fill="#181818" points="502.9648,284.9063,506.9648,294.9063,510.9648,284.9063,506.9648,288.9063" style="stroke:#181818;stroke-width:1;"/><line style="stroke:#181818;stroke-width:1;" x1="506.9648" x2="506.9648" y1="328.875" y2="348.875"/><polygon fill="#181818" points="502.9648,338.875,506.9648,348.875,510.9648,338.875,506.9648,342.875" style="stroke:#181818;stroke-width:1;"/><line style="stroke:#181818;stroke-width:1;" x1="506.9648" x2="506.9648" y1="382.8438" y2="402.8438"/><polygon fill="#181818" points="502.9648,392.8438,506.9648,402.8438,510.9648,392.8438,506.9648,396.8438" style="stroke:#181818;stroke-width:1;"/><line style="stroke:#181818;stroke-width:1;" x1="506.9648" x2="506.9648" y1="436.8125" y2="456.8125"/><polygon fill="#181818" points="502.9648,446.8125,506.9648,456.8125,510.9648,446.8125,506.9648,450.8125" style="stroke:#181818;stroke-width:1;"/><line style="stroke:#181818;stroke-width:1;" x1="334.1697" x2="288.3975" y1="203.9375" y2="203.9375"/><line style="stroke:#181818;stroke-width:1;" x1="288.3975" x2="288.3975" y1="203.9375" y2="225.9375"/><polygon fill="#181818" points="284.3975,215.9375,288.3975,225.9375,292.3975,215.9375,288.3975,219.9375" style="stroke:#181818;stroke-width:1;"/><line style="stroke:#181818;stroke-width:1;" x1="461.1926" x2="506.9648" y1="203.9375" y2="203.9375"/><line style="stroke:#181818;stroke-width:1;" x1="506.9648" x2="506.9648" y1="203.9375" y2="225.9375"/><polygon fill="#181818" points="502.9648,215.9375,506.9648,225.9375,510.9648,215.9375,506.9648,219.9375" style="stroke:#181818;stroke-width:1;"/><line style="stroke:#181818;stroke-width:1;" x1="181.9714" x2="96.835" y1="169.9375" y2="169.9375"/><line style="stroke:#181818;stroke-width:1;" x1="96.835" x2="96.835" y1="169.9375" y2="191.9375"/><polygon fill="#181818" points="92.835,181.9375,96.835,191.9375,100.835,181.9375,96.835,185.9375" style="stroke:#181818;stroke-width:1;"/><line style="stroke:#181818;stroke-width:1;" x1="312.5447" x2="397.6812" y1="169.9375" y2="169.9375"/><line style="stroke:#181818;stroke-width:1;" x1="397.6812" x2="397.6812" y1="169.9375" y2="191.9375"/><polygon fill="#181818" points="393.6812,181.9375,397.6812,191.9375,401.6812,181.9375,397.6812,185.9375" style="stroke:#181818;stroke-width:1;"/><line style="stroke:#181818;stroke-width:1;" x1="247.2581" x2="247.2581" y1="137.9375" y2="157.9375"/><polygon fill="#181818" points="243.2581,147.9375,247.2581,157.9375,251.2581,147.9375,247.2581,151.9375" style="stroke:#181818;stroke-width:1;"/><!--SRC=[TP0_JyCm5CJtV8eR4oa32APaQbDL2cAeul9dDSahiHez1_kb4dnwxAGg1Od5mxkxdq_dHJj9Ycemn095t7ciTZKQ-fZ82z9EYyxnyBBFKQbc2x57Of-LIQ78dSX1QJPYliYZvd4IR4AWJCm1wRCUJ8XJJ6CVSnca9qPQyobgMG8K3Sda6FStjtXYFKblNQ1rPT2ys36XmTEP5VqHNFNK7fSw_s6lmNVOMlTckewudAMP2_mXXyXg78TFl2g5dRD2hHXxZXJXq9BtFyEi9syuNXxjksbpRDRPnKgZTXIiVhGS_bWckIvraSHYsVvtC-xC8PdVRm00]--></g></svg>