<svg xmlns="http://www.w3.org/2000/svg" xmlns:xlink="http://www.w3.org/1999/xlink" contentStyleType="text/css" data-diagram-type="ACTIVITY" height="744px" preserveAspectRatio="none" style="width:633px;height:744px;background:#FFFFFF;" version="1.1" viewBox="0 0 633 744" width="633px" zoomAndPan="magnify"><defs/><g><ellipse cx="261.7542" cy="20" fill="#222222" rx="10" ry="10" style="stroke:#222222;stroke-width:1;"/><rect fill="#F1F1F1" height="33.9688" rx="12.5" ry="12.5" style="stroke:#181818;stroke-width:0.5;" width="159.2715" x="182.1184" y="50"/><text fill="#000000" font-family="sans-serif" font-size="12" lengthAdjust="spacing" textLength="139.2715" x="192.1184" y="71.1387">User Opens Login Page</text><rect fill="#F1F1F1" height="33.9688" rx="12.5" ry="12.5" style="stroke:#181818;stroke-width:0.5;" width="150.5703" x="186.469" y="103.9688"/><text fill="#000000" font-family="sans-serif" font-size="12" lengthAdjust="spacing" textLength="130.5703" x="196.469" y="125.1074">Redirect to CAS Login</text><rect fill="#F1F1F1" height="33.9688" rx="12.5" ry="12.5" style="stroke:#181818;stroke-width:0.5;" width="184.2324" x="169.6379" y="157.9375"/><text fill="#000000" font-family="sans-serif" font-size="12" lengthAdjust="spacing" textLength="164.2324" x="179.6379" y="179.0762">User Authenticates via CAS</text><polygon fill="#F1F1F1" points="212.1118,211.9063,311.3965,211.9063,323.3965,223.9063,311.3965,235.9063,212.1118,235.9063,200.1118,223.9063,212.1118,211.9063" style="stroke:#181818;stroke-width:0.5;"/><text fill="#000000" font-family="sans-serif" font-size="11" lengthAdjust="spacing" textLength="99.2847" x="212.1118" y="227.7144">Credentials Valid?</text><text fill="#000000" font-family="sans-serif" font-size="11" lengthAdjust="spacing" textLength="14.9585" x="185.1533" y="221.312">No</text><text fill="#000000" font-family="sans-serif" font-size="11" lengthAdjust="spacing" textLength="19.2178" x="323.3965" y="221.312">Yes</text><rect fill="#F1F1F1" height="33.9688" rx="12.5" ry="12.5" style="stroke:#181818;stroke-width:0.5;" width="177.8223" x="11" y="245.9063"/><text fill="#000000" font-family="sans-serif" font-size="12" lengthAdjust="spacing" textLength="157.8223" x="21" y="267.0449">Show Authentication Error</text><ellipse cx="99.9111" cy="310.875" fill="none" rx="11" ry="11" style="stroke:#222222;stroke-width:1;"/><ellipse cx="99.9111" cy="310.875" fill="#222222" rx="6" ry="6" style="stroke:#222222;stroke-width:1;"/><rect fill="#F1F1F1" height="33.9688" rx="12.5" ry="12.5" style="stroke:#181818;stroke-width:0.5;" width="175.6074" x="335.7935" y="245.9063"/><text fill="#000000" font-family="sans-serif" font-size="12" lengthAdjust="spacing" textLength="155.6074" x="345.7935" y="267.0449">CAS Returns Ticket/Token</text><rect fill="#F1F1F1" height="33.9688" rx="12.5" ry="12.5" style="stroke:#181818;stroke-width:0.5;" width="248.709" x="299.2427" y="299.875"/><text fill="#000000" font-family="sans-serif" font-size="12" lengthAdjust="spacing" textLength="228.709" x="309.2427" y="321.0137">Frontend Sends Ticket to Backend API</text><rect fill="#F1F1F1" height="33.9688" rx="12.5" ry="12.5" style="stroke:#181818;stroke-width:0.5;" width="199.2266" x="323.9839" y="353.8438"/><text fill="#000000" font-family="sans-serif" font-size="12" lengthAdjust="spacing" textLength="179.2266" x="333.9839" y="374.9824">Backend Validates CAS Ticket</text><rect fill="#F1F1F1" height="33.9688" rx="12.5" ry="12.5" style="stroke:#181818;stroke-width:0.5;" width="248.8203" x="299.187" y="407.8125"/><text fill="#000000" font-family="sans-serif" font-size="12" lengthAdjust="spacing" textLength="228.8203" x="309.187" y="428.9512">Database Lookup (find or create user)</text><rect fill="#F1F1F1" height="33.9688" rx="12.5" ry="12.5" style="stroke:#181818;stroke-width:0.5;" width="162.4004" x="342.397" y="461.7813"/><text fill="#000000" font-family="sans-serif" font-size="12" lengthAdjust="spacing" textLength="142.4004" x="352.397" y="482.9199">Assign User Roles/Flags</text><rect fill="#F1F1F1" height="33.9688" rx="12.5" ry="12.5" style="stroke:#181818;stroke-width:0.5;" width="168.3301" x="339.4321" y="515.75"/><text fill="#000000" font-family="sans-serif" font-size="12" lengthAdjust="spacing" textLength="148.3301" x="349.4321" y="536.8887">Generate JWT with Roles</text><rect fill="#F1F1F1" height="33.9688" rx="12.5" ry="12.5" style="stroke:#181818;stroke-width:0.5;" width="183.2656" x="331.9644" y="569.7188"/><text fill="#000000" font-family="sans-serif" font-size="12" lengthAdjust="spacing" textLength="163.2656" x="341.9644" y="590.8574">Set Session/Token in Client</text><polygon fill="#F1F1F1" points="394.2952,623.6875,452.8992,623.6875,464.8992,635.6875,452.8992,647.6875,394.2952,647.6875,382.2952,635.6875,394.2952,623.6875" style="stroke:#181818;stroke-width:0.5;"/><text fill="#000000" font-family="sans-serif" font-size="11" lengthAdjust="spacing" textLength="58.604" x="394.2952" y="639.4956">User Role?</text><text fill="#000000" font-family="sans-serif" font-size="11" lengthAdjust="spacing" textLength="35.2505" x="347.0447" y="633.0933">Admin</text><text fill="#000000" font-family="sans-serif" font-size="11" lengthAdjust="spacing" textLength="25.0723" x="464.8992" y="633.0933">User</text><rect fill="#F1F1F1" height="33.9688" rx="12.5" ry="12.5" style="stroke:#181818;stroke-width:0.5;" width="197.5508" x="218.8223" y="657.6875"/><text fill="#000000" font-family="sans-serif" font-size="12" lengthAdjust="spacing" textLength="177.5508" x="228.8223" y="678.8262">Redirect to Admin Dashboard</text><ellipse cx="317.5977" cy="722.6563" fill="none" rx="11" ry="11" style="stroke:#222222;stroke-width:1;"/><ellipse cx="317.5977" cy="722.6563" fill="#222222" rx="6" ry="6" style="stroke:#222222;stroke-width:1;"/><rect fill="#F1F1F1" height="33.9688" rx="12.5" ry="12.5" style="stroke:#181818;stroke-width:0.5;" width="186.4473" x="436.373" y="657.6875"/><text fill="#000000" font-family="sans-serif" font-size="12" lengthAdjust="spacing" textLength="166.4473" x="446.373" y="678.8262">Redirect to User Dashboard</text><ellipse cx="529.5967" cy="722.6563" fill="none" rx="11" ry="11" style="stroke:#222222;stroke-width:1;"/><ellipse cx="529.5967" cy="722.6563" fill="#222222" rx="6" ry="6" style="stroke:#222222;stroke-width:1;"/><line style="stroke:#181818;stroke-width:1;" x1="261.7542" x2="261.7542" y1="30" y2="50"/><polygon fill="#181818" points="257.7542,40,261.7542,50,265.7542,40,261.7542,44" style="stroke:#181818;stroke-width:1;"/><line style="stroke:#181818;stroke-width:1;" x1="261.7542" x2="261.7542" y1="83.9688" y2="103.9688"/><polygon fill="#181818" points="257.7542,93.9688,261.7542,103.9688,265.7542,93.9688,261.7542,97.9688" style="stroke:#181818;stroke-width:1;"/><line style="stroke:#181818;stroke-width:1;" x1="261.7542" x2="261.7542" y1="137.9375" y2="157.9375"/><polygon fill="#181818" points="257.7542,147.9375,261.7542,157.9375,265.7542,147.9375,261.7542,151.9375" style="stroke:#181818;stroke-width:1;"/><line style="stroke:#181818;stroke-width:1;" x1="99.9111" x2="99.9111" y1="279.875" y2="299.875"/><polygon fill="#181818" points="95.9111,289.875,99.9111,299.875,103.9111,289.875,99.9111,293.875" style="stroke:#181818;stroke-width:1;"/><line style="stroke:#181818;stroke-width:1;" x1="423.5972" x2="423.5972" y1="279.875" y2="299.875"/><polygon fill="#181818" points="419.5972,289.875,423.5972,299.875,427.5972,289.875,423.5972,293.875" style="stroke:#181818;stroke-width:1;"/><line style="stroke:#181818;stroke-width:1;" x1="423.5972" x2="423.5972" y1="333.8438" y2="353.8438"/><polygon fill="#181818" points="419.5972,343.8438,423.5972,353.8438,427.5972,343.8438,423.5972,347.8438" style="stroke:#181818;stroke-width:1;"/><line style="stroke:#181818;stroke-width:1;" x1="423.5972" x2="423.5972" y1="387.8125" y2="407.8125"/><polygon fill="#181818" points="419.5972,397.8125,423.5972,407.8125,427.5972,397.8125,423.5972,401.8125" style="stroke:#181818;stroke-width:1;"/><line style="stroke:#181818;stroke-width:1;" x1="423.5972" x2="423.5972" y1="441.7813" y2="461.7813"/><polygon fill="#181818" points="419.5972,451.7813,423.5972,461.7813,427.5972,451.7813,423.5972,455.7813" style="stroke:#181818;stroke-width:1;"/><line style="stroke:#181818;stroke-width:1;" x1="423.5972" x2="423.5972" y1="495.75" y2="515.75"/><polygon fill="#181818" points="419.5972,505.75,423.5972,515.75,427.5972,505.75,423.5972,509.75" style="stroke:#181818;stroke-width:1;"/><line style="stroke:#181818;stroke-width:1;" x1="423.5972" x2="423.5972" y1="549.7188" y2="569.7188"/><polygon fill="#181818" points="419.5972,559.7188,423.5972,569.7188,427.5972,559.7188,423.5972,563.7188" style="stroke:#181818;stroke-width:1;"/><line style="stroke:#181818;stroke-width:1;" x1="317.5977" x2="317.5977" y1="691.6563" y2="711.6563"/><polygon fill="#181818" points="313.5977,701.6563,317.5977,711.6563,321.5977,701.6563,317.5977,705.6563" style="stroke:#181818;stroke-width:1;"/><line style="stroke:#181818;stroke-width:1;" x1="529.5967" x2="529.5967" y1="691.6563" y2="711.6563"/><polygon fill="#181818" points="525.5967,701.6563,529.5967,711.6563,533.5967,701.6563,529.5967,705.6563" style="stroke:#181818;stroke-width:1;"/><line style="stroke:#181818;stroke-width:1;" x1="382.2952" x2="317.5977" y1="635.6875" y2="635.6875"/><line style="stroke:#181818;stroke-width:1;" x1="317.5977" x2="317.5977" y1="635.6875" y2="657.6875"/><polygon fill="#181818" points="313.5977,647.6875,317.5977,657.6875,321.5977,647.6875,317.5977,651.6875" style="stroke:#181818;stroke-width:1;"/><line style="stroke:#181818;stroke-width:1;" x1="464.8992" x2="529.5967" y1="635.6875" y2="635.6875"/><line style="stroke:#181818;stroke-width:1;" x1="529.5967" x2="529.5967" y1="635.6875" y2="657.6875"/><polygon fill="#181818" points="525.5967,647.6875,529.5967,657.6875,533.5967,647.6875,529.5967,651.6875" style="stroke:#181818;stroke-width:1;"/><line style="stroke:#181818;stroke-width:1;" x1="423.5972" x2="423.5972" y1="603.6875" y2="623.6875"/><polygon fill="#181818" points="419.5972,613.6875,423.5972,623.6875,427.5972,613.6875,423.5972,617.6875" style="stroke:#181818;stroke-width:1;"/><line style="stroke:#181818;stroke-width:1;" x1="200.1118" x2="99.9111" y1="223.9063" y2="223.9063"/><line style="stroke:#181818;stroke-width:1;" x1="99.9111" x2="99.9111" y1="223.9063" y2="245.9063"/><polygon fill="#181818" points="95.9111,235.9063,99.9111,245.9063,103.9111,235.9063,99.9111,239.9063" style="stroke:#181818;stroke-width:1;"/><line style="stroke:#181818;stroke-width:1;" x1="323.3965" x2="423.5972" y1="223.9063" y2="223.9063"/><line style="stroke:#181818;stroke-width:1;" x1="423.5972" x2="423.5972" y1="223.9063" y2="245.9063"/><polygon fill="#181818" points="419.5972,235.9063,423.5972,245.9063,427.5972,235.9063,423.5972,239.9063" style="stroke:#181818;stroke-width:1;"/><line style="stroke:#181818;stroke-width:1;" x1="261.7542" x2="261.7542" y1="191.9063" y2="211.9063"/><polygon fill="#181818" points="257.7542,201.9063,261.7542,211.9063,265.7542,201.9063,261.7542,205.9063" style="stroke:#181818;stroke-width:1;"/><!--SRC=[TP51JyCm38Nl-HK-TgVTsmCg6qEW2QPrW3XcZTTQA_6KfEpluxXisW4kKPBt-TbvYSc6PCgtY05UJ-WZhBaZ3nlROMNABJeAs2P838kwcSJgbw_7rADFrDg44Rx9PgGoXWvGB0AwhDaXmhiToDtD8DDGlF3C09HDp-TR1s8F3o5mg4IDYKy6XuXGV69KFdVVOXg3ZBYZzeXflkCZ-eoNgy0-eNVGo7BHyyptLdPoNs-U5BoSTIGTE_jEl09Bc-pUIkCryt4yGN4WmJb06r1u6ENXCoNh6Adpe4biUS0uNmssYwezeiUGyUUF7PmfzHEXMYEJDIZ5xASNWCIz64XoaEm0SdfNqsjgjViYduCGXzjFqNjOsjZlsGPNAQ7n0Km1Pgy_2hN5FtNUqS7e-WC0]--></g></svg>